<svg width="160" height="30" viewBox="0 0 160 30" fill="none" xmlns="http://www.w3.org/2000/svg">
<path d="M44.0213 23.1851C43.9145 23.0783 43.8789 22.936 43.8789 22.758V6.03205C43.8789 5.85411 43.9145 5.71176 44.0213 5.56942C44.128 5.46265 44.2704 5.39148 44.4483 5.39148H54.8398C55.0177 5.39148 55.16 5.46265 55.3024 5.56942C55.4092 5.67618 55.4803 5.81853 55.4803 6.03205V6.9929C55.4803 7.17084 55.4092 7.31319 55.3024 7.41995C55.1956 7.52671 55.0533 7.59788 54.8398 7.59788H46.2632V13.6833H54.3415C54.5195 13.6833 54.6618 13.7545 54.8042 13.8612C54.9109 13.968 54.9821 14.1103 54.9821 14.2883V15.2491C54.9821 15.4271 54.9109 15.5694 54.8042 15.6762C54.6974 15.7829 54.5551 15.8541 54.3771 15.8541H46.2632V22.8292C46.2632 23.0071 46.1921 23.1495 46.0853 23.2562C45.9785 23.363 45.8362 23.4342 45.6583 23.4342H44.4483C44.2704 23.363 44.128 23.2918 44.0213 23.1851Z" fill="#561832"/>
<path d="M57.2954 7.34875C57.1886 7.24199 57.1174 7.09964 57.1174 6.92171V5.60498C57.1174 5.42705 57.1886 5.2847 57.2954 5.17794C57.4021 5.07117 57.5445 5 57.7224 5H59.2171C59.395 5 59.5374 5.07117 59.6441 5.17794C59.7509 5.2847 59.8221 5.42705 59.8221 5.60498V6.92171C59.8221 7.09964 59.7509 7.24199 59.6441 7.34875C59.5374 7.45552 59.395 7.52669 59.2171 7.52669H57.7224C57.5445 7.52669 57.4021 7.45552 57.2954 7.34875ZM57.5089 23.1851C57.4021 23.0783 57.331 22.9359 57.331 22.758V10.6228C57.331 10.4448 57.4021 10.3025 57.5089 10.1957C57.6157 10.089 57.758 10.0178 57.9359 10.0178H59.0747C59.2527 10.0178 59.395 10.089 59.5018 10.1957C59.6085 10.3025 59.6797 10.4448 59.6797 10.6228V22.758C59.6797 22.9359 59.6085 23.0783 59.5018 23.1851C59.395 23.2918 59.2527 23.363 59.0747 23.363H57.9359C57.758 23.363 57.6157 23.2918 57.5089 23.1851Z" fill="#561832"/>
<path d="M62.7402 23.1851C62.6334 23.0783 62.5623 22.936 62.5623 22.758V10.6584C62.5623 10.4805 62.6334 10.3381 62.7402 10.2313C62.847 10.1246 62.9893 10.0534 63.1672 10.0534H64.2349C64.4128 10.0534 64.5551 10.1246 64.6975 10.2313C64.8042 10.3381 64.8754 10.4805 64.8754 10.694V11.8328C65.5872 10.6584 66.7615 10.089 68.4341 10.089H69.4306C69.6085 10.089 69.7509 10.1246 69.8576 10.2313C69.9644 10.3381 70 10.4805 70 10.6584V11.6192C70 11.7972 69.9644 11.9395 69.8576 12.0463C69.7509 12.1531 69.6085 12.2242 69.4306 12.2242H67.9715C67.0462 12.2242 66.2989 12.5089 65.7651 13.0427C65.2313 13.5765 64.9466 14.3239 64.9466 15.2847V22.8292C64.9466 23.0071 64.8754 23.1495 64.7687 23.2563C64.6619 23.363 64.5196 23.4342 64.3416 23.4342H63.2028C62.9893 23.363 62.847 23.2918 62.7402 23.1851Z" fill="#561832"/>
<path d="M72.5624 21.9751C71.5303 20.9075 70.961 19.4129 70.8542 17.5267L70.8186 16.6727L70.8542 15.8186C70.961 13.968 71.5303 12.509 72.5624 11.4057C73.5944 10.3025 74.9823 9.76874 76.7261 9.76874C78.6122 9.76874 80.0713 10.3737 81.1033 11.5481C82.1353 12.7581 82.6691 14.3595 82.6691 16.4235V16.8862C82.6691 17.0641 82.598 17.2065 82.4912 17.3132C82.3844 17.42 82.2421 17.4912 82.0642 17.4912H73.1674V17.7047C73.2029 18.8079 73.5588 19.7687 74.1994 20.5517C74.84 21.3346 75.6585 21.726 76.7261 21.726C77.5446 21.726 78.1852 21.5837 78.6834 21.2634C79.1816 20.9431 79.5731 20.6228 79.8222 20.267C79.9645 20.0534 80.1069 19.9467 80.178 19.9111C80.2492 19.8755 80.3916 19.8399 80.6051 19.8399H81.7439C81.8862 19.8399 82.0286 19.8755 82.1353 19.9823C82.2421 20.0534 82.3133 20.1958 82.3133 20.3025C82.3133 20.694 82.0997 21.1211 81.6371 21.6549C81.1745 22.1887 80.5339 22.6513 79.6798 23.0428C78.8257 23.4342 77.8649 23.6122 76.7617 23.6122C74.9823 23.6122 73.5944 23.0783 72.5624 21.9751ZM80.3204 15.7474V15.6762C80.3204 14.4662 80.0001 13.5054 79.3595 12.7581C78.719 12.0107 77.8293 11.6193 76.7617 11.6193C75.6585 11.6193 74.7688 12.0107 74.1638 12.7581C73.5232 13.5054 73.2029 14.4662 73.2029 15.6762V15.7474H80.3204Z" fill="#561832"/>
<path d="M86.5837 23.0428C85.7652 22.6513 85.1603 22.2243 84.7688 21.726C84.3773 21.2278 84.1638 20.8363 84.1638 20.4805C84.1638 20.3025 84.235 20.1602 84.3418 20.089C84.4485 19.9823 84.5909 19.9467 84.7332 19.9467H85.8008C85.9076 19.9467 85.9788 19.9467 86.0499 19.9823C86.1211 20.0178 86.1923 20.089 86.299 20.1958C86.6905 20.6584 87.1176 21.0499 87.6158 21.3346C88.114 21.6193 88.7546 21.7616 89.5731 21.7616C90.4983 21.7616 91.2457 21.5837 91.7795 21.2634C92.3489 20.9075 92.598 20.4093 92.598 19.7687C92.598 19.3417 92.4912 18.9858 92.2421 18.7367C91.993 18.4876 91.6015 18.2385 91.0677 18.0605C90.4983 17.847 89.6798 17.6335 88.6122 17.3844C87.1176 17.0641 86.0855 16.6015 85.445 15.9609C84.84 15.3559 84.5197 14.5374 84.5197 13.5766C84.5197 12.936 84.6976 12.331 85.0891 11.7616C85.4805 11.1566 86.0144 10.694 86.7617 10.3381C87.509 9.98226 88.3987 9.80432 89.4307 9.80432C90.4983 9.80432 91.4236 9.98226 92.1709 10.3381C92.9183 10.694 93.4877 11.121 93.8791 11.5837C94.2706 12.0463 94.4485 12.4734 94.4485 12.7936C94.4485 12.936 94.3773 13.0783 94.2706 13.1851C94.1638 13.2919 94.0215 13.3275 93.8791 13.3275H92.9183C92.6692 13.3275 92.4912 13.2207 92.4201 13.0428C92.1354 12.7225 91.8862 12.4734 91.6727 12.2954C91.4592 12.1175 91.1745 11.9751 90.8186 11.8328C90.4272 11.6904 89.9645 11.6549 89.3951 11.6549C88.541 11.6549 87.9005 11.8328 87.4734 12.1887C87.0464 12.5445 86.7973 13.0072 86.7973 13.5766C86.7973 13.9324 86.904 14.2527 87.082 14.5018C87.2599 14.7509 87.6158 14.9645 88.1496 15.178C88.6834 15.3915 89.4663 15.605 90.4983 15.8186C92.1353 16.1744 93.2741 16.6371 93.9503 17.2776C94.6265 17.9182 94.9467 18.7367 94.9467 19.6976C94.9467 20.4449 94.7332 21.0855 94.3062 21.6904C93.8791 22.2954 93.2741 22.7581 92.4201 23.1139C91.6015 23.4698 90.6051 23.6122 89.4663 23.6122C88.3987 23.6122 87.4023 23.4342 86.5837 23.0428Z" fill="#561832"/>
<path d="M98.5766 18.879V12.0107H96.5481C96.3702 12.0107 96.2279 11.9751 96.1211 11.8684C96.0143 11.7616 95.9788 11.6193 95.9788 11.4413V10.6228C95.9788 10.4449 96.0143 10.3025 96.1211 10.1958C96.2279 10.089 96.3702 10.0178 96.5481 10.0178H98.5766V5.74738C98.5766 5.56944 98.6122 5.42709 98.719 5.32033C98.8257 5.21357 98.9681 5.1424 99.146 5.1424H100.285C100.463 5.1424 100.605 5.21357 100.712 5.32033C100.819 5.42709 100.89 5.56944 100.89 5.74738V10.0178H104.057C104.235 10.0178 104.377 10.089 104.484 10.1958C104.591 10.3025 104.662 10.4449 104.662 10.6228V11.4413C104.662 11.6193 104.591 11.7616 104.484 11.8684C104.377 11.9751 104.235 12.0107 104.057 12.0107H100.89V18.7011C100.89 19.5552 101.032 20.2314 101.317 20.6584C101.602 21.0855 102.064 21.3346 102.776 21.3346H104.342C104.52 21.3346 104.662 21.4057 104.769 21.5125C104.876 21.6193 104.911 21.7616 104.911 21.9395V22.7936C104.911 22.9716 104.876 23.1139 104.769 23.2207C104.662 23.3274 104.52 23.3986 104.342 23.3986H102.598C99.8933 23.363 98.5766 21.8684 98.5766 18.879Z" fill="#561832"/>
<path d="M108.363 23.1139C107.651 22.7581 107.082 22.2954 106.655 21.726C106.228 21.121 106.014 20.4805 106.014 19.7687C106.014 18.6299 106.477 17.7047 107.402 16.9929C108.328 16.2812 109.573 15.783 111.175 15.5694L115.018 15.0356V14.2883C115.018 12.5445 113.986 11.6549 111.957 11.6549C111.175 11.6549 110.534 11.7972 110.071 12.1175C109.609 12.4378 109.253 12.7936 109.004 13.2207C108.933 13.3986 108.861 13.5054 108.79 13.5766C108.719 13.6477 108.612 13.6833 108.47 13.6833H107.473C107.331 13.6833 107.189 13.6122 107.082 13.5054C106.975 13.3986 106.904 13.2563 106.904 13.1139C106.904 12.7225 107.082 12.2598 107.438 11.726C107.794 11.1922 108.363 10.7652 109.146 10.3737C109.929 9.98226 110.854 9.80432 111.957 9.80432C113.879 9.80432 115.231 10.2314 116.086 11.121C116.904 12.0107 117.331 13.1139 117.331 14.4662V22.7936C117.331 22.9716 117.26 23.1139 117.153 23.2207C117.046 23.3275 116.904 23.3986 116.726 23.3986H115.659C115.481 23.3986 115.338 23.3275 115.231 23.2207C115.125 23.1139 115.089 22.9716 115.089 22.7936V21.6549C114.698 22.2243 114.164 22.6869 113.452 23.0783C112.74 23.4698 111.815 23.6477 110.676 23.6477C109.858 23.6122 109.075 23.4342 108.363 23.1139ZM113.95 20.6584C114.662 19.9111 115.018 18.8435 115.018 17.4556V16.7438L112.029 17.1709C110.783 17.3488 109.858 17.6335 109.253 18.025C108.612 18.452 108.292 18.9502 108.292 19.5552C108.292 20.267 108.577 20.8008 109.146 21.1566C109.715 21.5481 110.392 21.726 111.175 21.726C112.313 21.7616 113.239 21.3702 113.95 20.6584Z" fill="#561832"/>
<path d="M120.392 23.1851C120.285 23.0783 120.214 22.936 120.214 22.758V10.6584C120.214 10.4805 120.285 10.3381 120.392 10.2313C120.498 10.1246 120.641 10.0534 120.819 10.0534H121.886C122.064 10.0534 122.207 10.1246 122.349 10.2313C122.456 10.3381 122.527 10.4805 122.527 10.694V11.8328C123.239 10.6584 124.413 10.089 126.086 10.089H127.082C127.26 10.089 127.402 10.1246 127.509 10.2313C127.616 10.3381 127.651 10.4805 127.651 10.6584V11.6192C127.651 11.7972 127.616 11.9395 127.509 12.0463C127.402 12.1531 127.26 12.2242 127.082 12.2242H125.623C124.698 12.2242 123.95 12.5089 123.416 13.0427C122.883 13.5765 122.598 14.3239 122.598 15.2847V22.8292C122.598 23.0071 122.527 23.1495 122.42 23.2563C122.313 23.363 122.171 23.4342 121.993 23.4342H120.854C120.641 23.363 120.498 23.2918 120.392 23.1851Z" fill="#561832"/>
<path d="M131.246 18.879V12.0107H129.217C129.039 12.0107 128.897 11.9751 128.79 11.8684C128.684 11.7616 128.648 11.6193 128.648 11.4413V10.6228C128.648 10.4449 128.684 10.3025 128.79 10.1958C128.897 10.089 129.039 10.0178 129.217 10.0178H131.246V5.74738C131.246 5.56944 131.281 5.42709 131.388 5.32033C131.495 5.21357 131.637 5.1424 131.815 5.1424H132.954C133.132 5.1424 133.274 5.21357 133.381 5.32033C133.488 5.42709 133.559 5.56944 133.559 5.74738V10.0178H136.726C136.904 10.0178 137.047 10.089 137.153 10.1958C137.26 10.3025 137.331 10.4449 137.331 10.6228V11.4413C137.331 11.6193 137.26 11.7616 137.153 11.8684C137.047 11.9751 136.904 12.0107 136.726 12.0107H133.559V18.7011C133.559 19.5552 133.701 20.2314 133.986 20.6584C134.271 21.0855 134.733 21.3346 135.445 21.3346H137.011C137.189 21.3346 137.331 21.4057 137.438 21.5125C137.545 21.6193 137.58 21.7616 137.58 21.9395V22.7936C137.58 22.9716 137.545 23.1139 137.438 23.2207C137.331 23.3274 137.189 23.3986 137.011 23.3986H135.232C132.598 23.363 131.246 21.8684 131.246 18.879Z" fill="#561832"/>
<path d="M140.178 21.9751C139.146 20.9075 138.576 19.4129 138.47 17.5267L138.434 16.6727L138.47 15.8186C138.576 13.968 139.146 12.509 140.178 11.4057C141.21 10.3025 142.598 9.76874 144.342 9.76874C146.228 9.76874 147.687 10.3737 148.719 11.5481C149.751 12.7581 150.285 14.3595 150.285 16.4235V16.8862C150.285 17.0641 150.213 17.2065 150.107 17.3132C150 17.42 149.858 17.4912 149.68 17.4912H140.783V17.7047C140.818 18.8079 141.174 19.7687 141.815 20.5517C142.455 21.3346 143.274 21.726 144.342 21.726C145.16 21.726 145.801 21.5837 146.299 21.2634C146.797 20.9431 147.189 20.6228 147.438 20.267C147.58 20.0534 147.722 19.9467 147.794 19.9111C147.865 19.8755 148.007 19.8399 148.221 19.8399H149.359C149.502 19.8399 149.644 19.8755 149.751 19.9823C149.858 20.0534 149.929 20.1958 149.929 20.3025C149.929 20.694 149.715 21.1211 149.253 21.6549C148.79 22.1887 148.149 22.6513 147.295 23.0428C146.441 23.4342 145.48 23.6122 144.377 23.6122C142.633 23.6122 141.245 23.0783 140.178 21.9751ZM147.971 15.7474V15.6762C147.971 14.4662 147.651 13.5054 147.011 12.7581C146.37 12.0107 145.48 11.6193 144.413 11.6193C143.31 11.6193 142.42 12.0107 141.815 12.7581C141.174 13.5054 140.854 14.4662 140.854 15.6762V15.7474H147.971Z" fill="#561832"/>
<path d="M152.74 23.1851C152.633 23.0783 152.562 22.936 152.562 22.758V10.6584C152.562 10.4805 152.633 10.3381 152.74 10.2313C152.847 10.1246 152.989 10.0534 153.167 10.0534H154.235C154.413 10.0534 154.555 10.1246 154.697 10.2313C154.804 10.3381 154.875 10.4805 154.875 10.694V11.8328C155.587 10.6584 156.762 10.089 158.434 10.089H159.431C159.609 10.089 159.751 10.1246 159.858 10.2313C159.964 10.3381 160 10.4805 160 10.6584V11.6192C160 11.7972 159.964 11.9395 159.858 12.0463C159.751 12.1531 159.609 12.2242 159.431 12.2242H157.972C157.046 12.2242 156.299 12.5089 155.765 13.0427C155.231 13.5765 154.947 14.3239 154.947 15.2847V22.8292C154.947 23.0071 154.875 23.1495 154.769 23.2563C154.662 23.363 154.52 23.4342 154.342 23.4342H153.203C152.989 23.363 152.847 23.2918 152.74 23.1851Z" fill="#561832"/>
<path d="M14.6263 29.2527C22.7042 29.2527 29.2527 22.7042 29.2527 14.6263C29.2527 6.54843 22.7042 0 14.6263 0C6.54843 0 0 6.54843 0 14.6263C0 22.7042 6.54843 29.2527 14.6263 29.2527Z" fill="#C60021"/>
<path d="M14.6264 25.5872C20.6799 25.5872 25.5872 20.6798 25.5872 14.6263C25.5872 8.57281 20.6799 3.66547 14.6264 3.66547C8.57287 3.66547 3.66553 8.57281 3.66553 14.6263C3.66553 20.6798 8.57287 25.5872 14.6264 25.5872Z" fill="#FF5033"/>
<path d="M14.6262 22.242C18.8322 22.242 22.2418 18.8324 22.2418 14.6263C22.2418 10.4203 18.8322 7.01068 14.6262 7.01068C10.4201 7.01068 7.0105 10.4203 7.0105 14.6263C7.0105 18.8324 10.4201 22.242 14.6262 22.242Z" fill="#FFDA00"/>
</svg>
