<svg width="160" height="30" viewBox="0 0 160 30" fill="none" xmlns="http://www.w3.org/2000/svg">
<path d="M44.0213 25.1601C43.9145 25.0533 43.8789 24.911 43.8789 24.7331V8.00709C43.8789 7.82915 43.9145 7.6868 44.0213 7.54445C44.128 7.43769 44.2704 7.36652 44.4483 7.36652H54.8398C55.0177 7.36652 55.16 7.43769 55.3024 7.54445C55.4092 7.65121 55.4803 7.79356 55.4803 8.00709V8.96794C55.4803 9.14588 55.4092 9.28822 55.3024 9.39499C55.1956 9.50175 55.0533 9.57292 54.8398 9.57292H46.2632V15.6583H54.3415C54.5195 15.6583 54.6618 15.7295 54.8042 15.8363C54.9109 15.943 54.9821 16.0854 54.9821 16.2633V17.2242C54.9821 17.4021 54.9109 17.5445 54.8042 17.6512C54.6974 17.758 54.5551 17.8291 54.3771 17.8291H46.2632V24.8042C46.2632 24.9822 46.1921 25.1245 46.0853 25.2313C45.9785 25.338 45.8362 25.4092 45.6583 25.4092H44.4483C44.2704 25.338 44.128 25.2669 44.0213 25.1601Z" fill="#561832"/>
<path d="M57.2954 9.32379C57.1886 9.21703 57.1174 9.07468 57.1174 8.89674V7.58002C57.1174 7.40208 57.1886 7.25973 57.2954 7.15297C57.4021 7.04621 57.5445 6.97504 57.7224 6.97504H59.2171C59.395 6.97504 59.5374 7.04621 59.6441 7.15297C59.7509 7.25973 59.8221 7.40208 59.8221 7.58002V8.89674C59.8221 9.07468 59.7509 9.21703 59.6441 9.32379C59.5374 9.43055 59.395 9.50173 59.2171 9.50173H57.7224C57.5445 9.50173 57.4021 9.43055 57.2954 9.32379ZM57.5089 25.1601C57.4021 25.0533 57.331 24.911 57.331 24.733V12.5978C57.331 12.4199 57.4021 12.2775 57.5089 12.1708C57.6157 12.064 57.758 11.9928 57.9359 11.9928H59.0747C59.2527 11.9928 59.395 12.064 59.5018 12.1708C59.6085 12.2775 59.6797 12.4199 59.6797 12.5978V24.733C59.6797 24.911 59.6085 25.0533 59.5018 25.1601C59.395 25.2669 59.2527 25.338 59.0747 25.338H57.9359C57.758 25.338 57.6157 25.2669 57.5089 25.1601Z" fill="#561832"/>
<path d="M62.7402 25.1601C62.6334 25.0534 62.5623 24.911 62.5623 24.7331V12.6334C62.5623 12.4555 62.6334 12.3131 62.7402 12.2064C62.847 12.0996 62.9893 12.0284 63.1672 12.0284H64.2349C64.4128 12.0284 64.5551 12.0996 64.6975 12.2064C64.8042 12.3131 64.8754 12.4555 64.8754 12.669V13.8078C65.5872 12.6334 66.7615 12.064 68.4341 12.064H69.4306C69.6085 12.064 69.7509 12.0996 69.8576 12.2064C69.9644 12.3131 70 12.4555 70 12.6334V13.5943C70 13.7722 69.9644 13.9146 69.8576 14.0213C69.7509 14.1281 69.6085 14.1993 69.4306 14.1993H67.9715C67.0462 14.1993 66.2989 14.484 65.7651 15.0178C65.2313 15.5516 64.9466 16.2989 64.9466 17.2598V24.8042C64.9466 24.9822 64.8754 25.1245 64.7687 25.2313C64.6619 25.3381 64.5196 25.4092 64.3416 25.4092H63.2028C62.9893 25.3381 62.847 25.2669 62.7402 25.1601Z" fill="#561832"/>
<path d="M72.5624 23.9502C71.5303 22.8826 70.961 21.3879 70.8542 19.5018L70.8186 18.6477L70.8542 17.7936C70.961 15.9431 71.5303 14.484 72.5624 13.3808C73.5944 12.2776 74.9823 11.7438 76.7261 11.7438C78.6122 11.7438 80.0713 12.3488 81.1033 13.5231C82.1353 14.7331 82.6691 16.3345 82.6691 18.3986V18.8612C82.6691 19.0391 82.598 19.1815 82.4912 19.2883C82.3844 19.395 82.2421 19.4662 82.0642 19.4662H73.1674V19.6797C73.2029 20.7829 73.5588 21.7438 74.1994 22.5267C74.84 23.3096 75.6585 23.7011 76.7261 23.7011C77.5446 23.7011 78.1852 23.5587 78.6834 23.2384C79.1816 22.9182 79.5731 22.5979 79.8222 22.242C79.9645 22.0285 80.1069 21.9217 80.178 21.8861C80.2492 21.8505 80.3916 21.8149 80.6051 21.8149H81.7439C81.8862 21.8149 82.0286 21.8505 82.1353 21.9573C82.2421 22.0285 82.3133 22.1708 82.3133 22.2776C82.3133 22.669 82.0997 23.0961 81.6371 23.6299C81.1745 24.1637 80.5339 24.6263 79.6798 25.0178C78.8257 25.4093 77.8649 25.5872 76.7617 25.5872C74.9823 25.5872 73.5944 25.0534 72.5624 23.9502ZM80.3204 17.7224V17.6512C80.3204 16.4413 80.0001 15.4804 79.3595 14.7331C78.719 13.9858 77.8293 13.5943 76.7617 13.5943C75.6585 13.5943 74.7688 13.9858 74.1638 14.7331C73.5232 15.4804 73.2029 16.4413 73.2029 17.6512V17.7224H80.3204Z" fill="#561832"/>
<path d="M86.5837 25.0178C85.7652 24.6263 85.1603 24.1993 84.7688 23.7011C84.3773 23.2028 84.1638 22.8114 84.1638 22.4555C84.1638 22.2776 84.235 22.1352 84.3418 22.0641C84.4485 21.9573 84.5909 21.9217 84.7332 21.9217H85.8008C85.9076 21.9217 85.9788 21.9217 86.0499 21.9573C86.1211 21.9929 86.1923 22.0641 86.299 22.1708C86.6905 22.6335 87.1176 23.0249 87.6158 23.3096C88.114 23.5943 88.7546 23.7367 89.5731 23.7367C90.4983 23.7367 91.2457 23.5587 91.7795 23.2384C92.3489 22.8826 92.598 22.3843 92.598 21.7438C92.598 21.3167 92.4912 20.9609 92.2421 20.7117C91.993 20.4626 91.6015 20.2135 91.0677 20.0356C90.4983 19.8221 89.6798 19.6085 88.6122 19.3594C87.1176 19.0391 86.0855 18.5765 85.445 17.9359C84.84 17.331 84.5197 16.5125 84.5197 15.5516C84.5197 14.911 84.6976 14.306 85.0891 13.7367C85.4805 13.1317 86.0144 12.669 86.7617 12.3132C87.509 11.9573 88.3987 11.7794 89.4307 11.7794C90.4983 11.7794 91.4236 11.9573 92.1709 12.3132C92.9183 12.669 93.4877 13.0961 93.8791 13.5587C94.2706 14.0214 94.4485 14.4484 94.4485 14.7687C94.4485 14.911 94.3773 15.0534 94.2706 15.1601C94.1638 15.2669 94.0215 15.3025 93.8791 15.3025H92.9183C92.6692 15.3025 92.4912 15.1957 92.4201 15.0178C92.1354 14.6975 91.8862 14.4484 91.6727 14.2705C91.4592 14.0925 91.1745 13.9502 90.8186 13.8078C90.4272 13.6655 89.9645 13.6299 89.3951 13.6299C88.541 13.6299 87.9005 13.8078 87.4734 14.1637C87.0464 14.5196 86.7973 14.9822 86.7973 15.5516C86.7973 15.9075 86.904 16.2278 87.082 16.4769C87.2599 16.726 87.6158 16.9395 88.1496 17.153C88.6834 17.3665 89.4663 17.5801 90.4983 17.7936C92.1353 18.1495 93.2741 18.6121 93.9503 19.2527C94.6265 19.8932 94.9467 20.7117 94.9467 21.6726C94.9467 22.4199 94.7332 23.0605 94.3062 23.6655C93.8791 24.2705 93.2741 24.7331 92.4201 25.089C91.6015 25.4448 90.6051 25.5872 89.4663 25.5872C88.3987 25.5872 87.4023 25.4093 86.5837 25.0178Z" fill="#561832"/>
<path d="M98.5766 20.8541V13.9858H96.5481C96.3702 13.9858 96.2279 13.9502 96.1211 13.8434C96.0143 13.7366 95.9788 13.5943 95.9788 13.4164V12.5979C95.9788 12.4199 96.0143 12.2776 96.1211 12.1708C96.2279 12.0641 96.3702 11.9929 96.5481 11.9929H98.5766V7.72241C98.5766 7.54448 98.6122 7.40213 98.719 7.29537C98.8257 7.18861 98.9681 7.11743 99.146 7.11743H100.285C100.463 7.11743 100.605 7.18861 100.712 7.29537C100.819 7.40213 100.89 7.54448 100.89 7.72241V11.9929H104.057C104.235 11.9929 104.377 12.0641 104.484 12.1708C104.591 12.2776 104.662 12.4199 104.662 12.5979V13.4164C104.662 13.5943 104.591 13.7366 104.484 13.8434C104.377 13.9502 104.235 13.9858 104.057 13.9858H100.89V20.6761C100.89 21.5302 101.032 22.2064 101.317 22.6334C101.602 23.0605 102.064 23.3096 102.776 23.3096H104.342C104.52 23.3096 104.662 23.3808 104.769 23.4875C104.876 23.5943 104.911 23.7366 104.911 23.9146V24.7687C104.911 24.9466 104.876 25.089 104.769 25.1957C104.662 25.3025 104.52 25.3737 104.342 25.3737H102.598C99.8933 25.3381 98.5766 23.8434 98.5766 20.8541Z" fill="#561832"/>
<path d="M108.363 25.089C107.651 24.7331 107.082 24.2705 106.655 23.7011C106.228 23.0961 106.014 22.4555 106.014 21.7438C106.014 20.605 106.477 19.6797 107.402 18.968C108.328 18.2562 109.573 17.758 111.175 17.5445L115.018 17.0107V16.2633C115.018 14.5196 113.986 13.6299 111.957 13.6299C111.175 13.6299 110.534 13.7722 110.071 14.0925C109.609 14.4128 109.253 14.7687 109.004 15.1957C108.933 15.3737 108.861 15.4804 108.79 15.5516C108.719 15.6228 108.612 15.6584 108.47 15.6584H107.473C107.331 15.6584 107.189 15.5872 107.082 15.4804C106.975 15.3737 106.904 15.2313 106.904 15.089C106.904 14.6975 107.082 14.2349 107.438 13.7011C107.794 13.1673 108.363 12.7402 109.146 12.3488C109.929 11.9573 110.854 11.7794 111.957 11.7794C113.879 11.7794 115.231 12.2064 116.086 13.0961C116.904 13.9858 117.331 15.089 117.331 16.4413V24.7687C117.331 24.9466 117.26 25.089 117.153 25.1957C117.046 25.3025 116.904 25.3737 116.726 25.3737H115.659C115.481 25.3737 115.338 25.3025 115.231 25.1957C115.125 25.089 115.089 24.9466 115.089 24.7687V23.6299C114.698 24.1993 114.164 24.6619 113.452 25.0534C112.74 25.4448 111.815 25.6228 110.676 25.6228C109.858 25.5872 109.075 25.4093 108.363 25.089ZM113.95 22.6335C114.662 21.8861 115.018 20.8185 115.018 19.4306V18.7189L112.029 19.1459C110.783 19.3238 109.858 19.6085 109.253 20C108.612 20.427 108.292 20.9253 108.292 21.5302C108.292 22.242 108.577 22.7758 109.146 23.1317C109.715 23.5231 110.392 23.7011 111.175 23.7011C112.313 23.7367 113.239 23.3452 113.95 22.6335Z" fill="#561832"/>
<path d="M120.392 25.1601C120.285 25.0534 120.214 24.911 120.214 24.7331V12.6334C120.214 12.4555 120.285 12.3131 120.392 12.2064C120.498 12.0996 120.641 12.0284 120.819 12.0284H121.886C122.064 12.0284 122.207 12.0996 122.349 12.2064C122.456 12.3131 122.527 12.4555 122.527 12.669V13.8078C123.239 12.6334 124.413 12.064 126.086 12.064H127.082C127.26 12.064 127.402 12.0996 127.509 12.2064C127.616 12.3131 127.651 12.4555 127.651 12.6334V13.5943C127.651 13.7722 127.616 13.9146 127.509 14.0213C127.402 14.1281 127.26 14.1993 127.082 14.1993H125.623C124.698 14.1993 123.95 14.484 123.416 15.0178C122.883 15.5516 122.598 16.2989 122.598 17.2598V24.8042C122.598 24.9822 122.527 25.1245 122.42 25.2313C122.313 25.3381 122.171 25.4092 121.993 25.4092H120.854C120.641 25.3381 120.498 25.2669 120.392 25.1601Z" fill="#561832"/>
<path d="M131.246 20.8541V13.9858H129.217C129.039 13.9858 128.897 13.9502 128.79 13.8434C128.684 13.7366 128.648 13.5943 128.648 13.4164V12.5979C128.648 12.4199 128.684 12.2776 128.79 12.1708C128.897 12.0641 129.039 11.9929 129.217 11.9929H131.246V7.72241C131.246 7.54448 131.281 7.40213 131.388 7.29537C131.495 7.18861 131.637 7.11743 131.815 7.11743H132.954C133.132 7.11743 133.274 7.18861 133.381 7.29537C133.488 7.40213 133.559 7.54448 133.559 7.72241V11.9929H136.726C136.904 11.9929 137.047 12.0641 137.153 12.1708C137.26 12.2776 137.331 12.4199 137.331 12.5979V13.4164C137.331 13.5943 137.26 13.7366 137.153 13.8434C137.047 13.9502 136.904 13.9858 136.726 13.9858H133.559V20.6761C133.559 21.5302 133.701 22.2064 133.986 22.6334C134.271 23.0605 134.733 23.3096 135.445 23.3096H137.011C137.189 23.3096 137.331 23.3808 137.438 23.4875C137.545 23.5943 137.58 23.7366 137.58 23.9146V24.7687C137.58 24.9466 137.545 25.089 137.438 25.1957C137.331 25.3025 137.189 25.3737 137.011 25.3737H135.232C132.598 25.3381 131.246 23.8434 131.246 20.8541Z" fill="#561832"/>
<path d="M140.178 23.9502C139.146 22.8826 138.576 21.3879 138.47 19.5018L138.434 18.6477L138.47 17.7936C138.576 15.9431 139.146 14.484 140.178 13.3808C141.21 12.2776 142.598 11.7438 144.342 11.7438C146.228 11.7438 147.687 12.3488 148.719 13.5231C149.751 14.7331 150.285 16.3345 150.285 18.3986V18.8612C150.285 19.0391 150.213 19.1815 150.107 19.2883C150 19.395 149.858 19.4662 149.68 19.4662H140.783V19.6797C140.818 20.7829 141.174 21.7438 141.815 22.5267C142.455 23.3096 143.274 23.7011 144.342 23.7011C145.16 23.7011 145.801 23.5587 146.299 23.2384C146.797 22.9182 147.189 22.5979 147.438 22.242C147.58 22.0285 147.722 21.9217 147.794 21.8861C147.865 21.8505 148.007 21.8149 148.221 21.8149H149.359C149.502 21.8149 149.644 21.8505 149.751 21.9573C149.858 22.0285 149.929 22.1708 149.929 22.2776C149.929 22.669 149.715 23.0961 149.253 23.6299C148.79 24.1637 148.149 24.6263 147.295 25.0178C146.441 25.4093 145.48 25.5872 144.377 25.5872C142.633 25.5872 141.245 25.0534 140.178 23.9502ZM147.971 17.7224V17.6512C147.971 16.4413 147.651 15.4804 147.011 14.7331C146.37 13.9858 145.48 13.5943 144.413 13.5943C143.31 13.5943 142.42 13.9858 141.815 14.7331C141.174 15.4804 140.854 16.4413 140.854 17.6512V17.7224H147.971Z" fill="#561832"/>
<path d="M152.74 25.1601C152.633 25.0534 152.562 24.911 152.562 24.7331V12.6334C152.562 12.4555 152.633 12.3131 152.74 12.2064C152.847 12.0996 152.989 12.0284 153.167 12.0284H154.235C154.413 12.0284 154.555 12.0996 154.697 12.2064C154.804 12.3131 154.875 12.4555 154.875 12.669V13.8078C155.587 12.6334 156.762 12.064 158.434 12.064H159.431C159.609 12.064 159.751 12.0996 159.858 12.2064C159.964 12.3131 160 12.4555 160 12.6334V13.5943C160 13.7722 159.964 13.9146 159.858 14.0213C159.751 14.1281 159.609 14.1993 159.431 14.1993H157.972C157.046 14.1993 156.299 14.484 155.765 15.0178C155.231 15.5516 154.947 16.2989 154.947 17.2598V24.8042C154.947 24.9822 154.875 25.1245 154.769 25.2313C154.662 25.3381 154.52 25.4092 154.342 25.4092H153.203C152.989 25.3381 152.847 25.2669 152.74 25.1601Z" fill="#561832"/>
<path d="M14.6263 29.2527C22.7042 29.2527 29.2527 22.7042 29.2527 14.6263C29.2527 6.54843 22.7042 0 14.6263 0C6.54843 0 0 6.54843 0 14.6263C0 22.7042 6.54843 29.2527 14.6263 29.2527Z" fill="#C60021"/>
<path d="M14.6264 25.5872C20.6799 25.5872 25.5872 20.6798 25.5872 14.6263C25.5872 8.57281 20.6799 3.66547 14.6264 3.66547C8.57287 3.66547 3.66553 8.57281 3.66553 14.6263C3.66553 20.6798 8.57287 25.5872 14.6264 25.5872Z" fill="#FF5033"/>
<path d="M14.6262 22.242C18.8322 22.242 22.2418 18.8324 22.2418 14.6263C22.2418 10.4203 18.8322 7.01068 14.6262 7.01068C10.4201 7.01068 7.0105 10.4203 7.0105 14.6263C7.0105 18.8324 10.4201 22.242 14.6262 22.242Z" fill="#FFDA00"/>
</svg>
