<svg width="130" height="32" viewBox="0 0 130 32" fill="none" xmlns="http://www.w3.org/2000/svg">
<path d="M48.4117 8.79437V9.75632H39.4976V15.8487H48.0483V16.8106H39.4976V24.0787H38.3754V8.79437H48.4117Z" fill="black"/>
<path d="M51.9286 8.79437V10.077H50.5926V8.79437H51.9286ZM51.8217 12.8559V24.0787H50.6994V12.8559H51.8217Z" fill="black"/>
<path d="M55.0286 24.0787V12.8559H55.8303L55.9692 14.7157C57.095 13.4759 58.3491 12.8559 59.7315 12.8559V13.7538C58.3919 13.7538 57.1984 14.4057 56.1509 15.7097V24.0787H55.0286Z" fill="black"/>
<path d="M65.9098 12.8559C68.9809 12.8559 70.5165 14.5554 70.5165 17.9543C70.5165 18.1965 70.5093 18.4495 70.4951 18.7131H61.9765C61.9765 21.6489 63.5299 23.1167 66.6366 23.1167C67.9121 23.1167 69.045 22.9386 70.0355 22.5823V23.5443C69.045 23.9005 67.9121 24.0787 66.6366 24.0787C62.7817 24.0787 60.8542 22.1655 60.8542 18.339C60.8542 14.6836 62.5394 12.8559 65.9098 12.8559ZM61.9765 17.7084H69.4369C69.3942 15.1005 68.2185 13.7965 65.9098 13.7965C63.4158 13.7965 62.1047 15.1005 61.9765 17.7084Z" fill="black"/>
<path d="M72.7507 23.5443V22.4754C73.9977 22.903 75.2233 23.1167 76.4275 23.1167C78.7861 23.1167 79.9654 22.3685 79.9654 20.8722C79.9654 19.6608 79.0925 19.0552 77.3467 19.0552H75.9145C73.5631 19.0552 72.3873 18.0576 72.3873 16.0624C72.3873 13.9248 73.9443 12.8559 77.0581 12.8559C78.2552 12.8559 79.4773 13.0341 80.7242 13.3904V14.4592C79.4773 14.0317 78.2552 13.8179 77.0581 13.8179C74.6925 13.8179 73.5096 14.5661 73.5096 16.0624C73.5096 17.345 74.3112 17.9863 75.9145 17.9863H77.3467C79.8407 17.9863 81.0876 18.9483 81.0876 20.8722C81.0876 23.0098 79.5343 24.0787 76.4275 24.0787C75.2233 24.0787 73.9977 23.9005 72.7507 23.5443Z" fill="black"/>
<path d="M83.4929 11.0389H84.2839L84.487 12.8559H87.8538V13.8179H84.5832V20.9042C84.5832 22.3792 85.1247 23.1167 86.2078 23.1167H87.8538V24.0787H86.2292C84.405 24.0787 83.4929 23.0704 83.4929 21.0539V11.0389Z" fill="black"/>
<path d="M89.1689 20.9042C89.1689 18.674 90.651 17.5588 93.6152 17.5588C94.6627 17.5588 95.7814 17.6301 96.9714 17.7726V16.3938C96.9714 14.6765 95.8918 13.8179 93.7328 13.8179C92.5785 13.8179 91.3956 13.996 90.1843 14.3523V13.3904C91.3956 13.0341 92.5785 12.8559 93.7328 12.8559C96.64 12.8559 98.0936 14.0174 98.0936 16.3403V24.0787H97.4096L97.1531 22.9671C95.7493 23.7082 94.3883 24.0787 93.0701 24.0787C90.4693 24.0787 89.1689 23.0205 89.1689 20.9042ZM93.6152 18.5208C91.3992 18.5208 90.2911 19.3046 90.2911 20.8722C90.2911 22.3685 91.2175 23.1167 93.0701 23.1167C94.4382 23.1167 95.7386 22.7533 96.9714 22.0265V18.7345C95.7814 18.592 94.6627 18.5208 93.6152 18.5208Z" fill="black"/>
<path d="M101.087 24.0787V12.8559H101.888L102.027 14.7157C103.153 13.4759 104.407 12.8559 105.79 12.8559V13.7538C104.45 13.7538 103.257 14.4057 102.209 15.7097V24.0787H101.087Z" fill="black"/>
<path d="M107.404 11.0389H108.195L108.398 12.8559H111.765V13.8179H108.494V20.9042C108.494 22.3792 109.036 23.1167 110.119 23.1167H111.765V24.0787H110.14C108.316 24.0787 107.404 23.0704 107.404 21.0539V11.0389Z" fill="black"/>
<path d="M118.242 12.8559C121.314 12.8559 122.849 14.5554 122.849 17.9543C122.849 18.1965 122.842 18.4495 122.828 18.7131H114.309C114.309 21.6489 115.862 23.1167 118.969 23.1167C120.245 23.1167 121.378 22.9386 122.368 22.5823V23.5443C121.378 23.9005 120.245 24.0787 118.969 24.0787C115.114 24.0787 113.187 22.1655 113.187 18.339C113.187 14.6836 114.872 12.8559 118.242 12.8559ZM114.309 17.7084H121.77C121.727 15.1005 120.551 13.7965 118.242 13.7965C115.748 13.7965 114.437 15.1005 114.309 17.7084Z" fill="black"/>
<path d="M125.297 24.0787V12.8559H126.099L126.238 14.7157C127.364 13.4759 128.618 12.8559 130 12.8559V13.7538C128.66 13.7538 127.467 14.4057 126.419 15.7097V24.0787H125.297Z" fill="black"/>
<path d="M26.5227 18.0592C26.5227 25.3832 20.5854 31.3205 13.2613 31.3205C5.9373 31.3205 0 25.3832 0 18.0592C0 10.7351 8.2515 0 13.2613 0C18.2712 0 26.5227 10.7351 26.5227 18.0592Z" fill="#FF613C"/>
<circle cx="13.2613" cy="22.1849" r="7.07271" fill="#FFEC61"/>
</svg>
